<?xml version="1.0" encoding="iso-8859-1"?>
<!-- Generator: Adobe Illustrator 19.0.0, SVG Export Plug-In . SVG Version: 6.00 Build 0)  -->
<svg version="1.1" id="Layer_1" xmlns="http://www.w3.org/2000/svg" xmlns:xlink="http://www.w3.org/1999/xlink" x="0px" y="0px"
	 viewBox="0 0 367.864 367.864" style="enable-background:new 0 0 367.864 367.864;" xml:space="preserve">
<g id="XMLID_1376_">
	<g id="XMLID_1377_">
		<path id="XMLID_43_" style="fill:#FAE16E;" d="M203.811,251.238l-16.554-6.937l87.127-207.913
			c1.916-4.571,7.174-6.724,11.745-4.808l0,0c4.571,1.916,6.724,7.174,4.809,11.745L203.811,251.238z"/>
		<path id="XMLID_42_" style="fill:#CF476A;" d="M189.314,45.397l99.288-26.392l55.84,86.235c4.262,6.582-2.39,14.771-9.706,11.949
			L188.481,60.768C181.165,57.946,181.737,47.411,189.314,45.397z"/>
	</g>
	<path id="XMLID_40_" style="fill:#FCE98E;" d="M165.599,264.728l-28.822,5.515L89.375,17.432
		c-1.523-7.959,3.694-15.645,11.653-17.168l0,0c7.959-1.523,15.645,3.694,17.168,11.653L165.599,264.728z"/>
	<g id="XMLID_1378_">
		<path id="XMLID_1379_" style="fill:#1DD2A5;" d="M59.243,161.246c-4.968,16.27-7.689,33.791-7.689,52.063
			c0,85.359,59.02,154.555,131.827,154.555c72.805,0,131.826-69.196,131.826-154.555c0-18.272-2.722-35.793-7.689-52.063
			L59.243,161.246L59.243,161.246z"/>
		<g id="XMLID_1380_">
			<path id="XMLID_1383_" style="fill:#2CB79A;" d="M307.681,161.791H184.895v206.05c72.107-0.953,130.311-69.766,130.311-154.532
				C315.206,195.24,312.543,177.907,307.681,161.791z"/>
		</g>
	</g>
	<g id="XMLID_1384_">
		<path id="XMLID_1385_" style="fill:#FF628B;" d="M60.37,187.897c-24.18,41.881-63.747-26.651-15.387-26.651
			c-48.36,0-8.793-68.532,15.387-26.651c-24.18-41.881,54.954-41.881,30.774,0c24.18-41.881,63.747,26.651,15.387,26.651
			c48.36,0,8.793,68.532-15.387,26.651C115.324,229.778,36.19,229.778,60.37,187.897z"/>
		<path id="XMLID_1386_" style="fill:#FCE98E;" d="M96.039,161.249c0,11.201-9.076,20.279-20.278,20.279
			s-20.286-9.077-20.286-20.279c0-11.205,9.084-20.285,20.286-20.285S96.039,150.044,96.039,161.249z"/>
	</g>
</g>
<g>
</g>
<g>
</g>
<g>
</g>
<g>
</g>
<g>
</g>
<g>
</g>
<g>
</g>
<g>
</g>
<g>
</g>
<g>
</g>
<g>
</g>
<g>
</g>
<g>
</g>
<g>
</g>
<g>
</g>
</svg>
